# xmcd
#
# Track frame offsets:
#	150
#	11942
#	22106
#	36060
#	48391
#	60087
#	71931
#	77445
#	88987
#	99766
#	113373
#	123392
#	131828
#	141145
#	153833
#	168027
#	181285
#	192719
#	205865
#	218438
#
# Disc length: 3091 seconds
#
# Revision: 1
# Processed by: cddbd v1.5.2PL0 Copyright (c) Steve Scherf et al.
# Submitted via: audiograbber 1.83.01
#
DISCID=0a0c1114
DTITLE=Willie Nelson - The Country Biographie
DYEAR=1999
DGENRE=Country
TTITLE0=Night Life
TTITLE1=Healing Hands of Time
TTITLE2=Home is where You're Happy
TTITLE3=Shelter of my Arms
TTITLE4=I'll stay around
TTITLE5=Happiness lives next door
TTITLE6=Ghost
TTITLE7=December Days
TTITLE8=Blame it on the Times
TTITLE9=A Moment isn't very long
TTITLE10=I did not sleep a wink
TTITLE11=Slow down old World
TTITLE12=One Step Beyond
TTITLE13=She's not for You
TTITLE14=Rainy Day Blues
TTITLE15=I Just Don't understand
TTITLE16=Suffering in Silence
TTITLE17=You'll Always Have Someone
TTITLE18=Any old Arms Won't Do
TTITLE19=Last Letter
EXTD=
EXTT0=
EXTT1=
EXTT2=
EXTT3=
EXTT4=
EXTT5=
EXTT6=
EXTT7=
EXTT8=
EXTT9=
EXTT10=
EXTT11=
EXTT12=
EXTT13=
EXTT14=
EXTT15=
EXTT16=
EXTT17=
EXTT18=
EXTT19=
PLAYORDER=
